<?xml version="1.0" encoding="UTF-8"?>
<svg width="214px" height="265px" viewBox="0 0 214 265" version="1.1" xmlns="http://www.w3.org/2000/svg" xmlns:xlink="http://www.w3.org/1999/xlink">
    <!-- Generator: Sketch 46.2 (44496) - http://www.bohemiancoding.com/sketch -->
    <title>Abstract Brian</title>
    <desc>Created with Sketch.</desc>
    <defs></defs>
    <g id="Symbols" stroke="none" stroke-width="1" fill="none" fill-rule="evenodd">
        <g id="Abstract-Brian">
            <g id="Ears" transform="translate(11.000000, 118.000000)" stroke="#E7D7CA" fill="#FFF3E9">
                <ellipse id="Left-Ear" transform="translate(8.000000, 15.500000) rotate(-11.000000) translate(-8.000000, -15.500000) " cx="8" cy="15.5" rx="5" ry="14.5"></ellipse>
                <ellipse id="Right-Ear" transform="translate(183.429734, 15.187639) scale(1, -1) rotate(-11.000000) translate(-183.429734, -15.187639) " cx="183.429734" cy="15.1876391" rx="5" ry="14.5"></ellipse>
            </g>
            <path d="M47.4121972,36 C28.653442,71.7290772 19.522451,96.2125308 20.0192244,109.450361 C20.7643844,129.307106 22.3762882,214.682606 33.7060986,224.088537 C33.7761979,224.160506 66.4036777,265 107.209531,265 C147.596322,265 180.223802,224.160506 180.293901,224.088537 C191.623712,214.682606 193.235616,129.307106 193.980776,109.450361 C194.477549,96.2125308 185.346558,71.7290772 166.587803,36" id="Path" stroke="#979797" fill="#FFF3E9"></path>
            <g id="Hair" stroke="#3E3E3E" stroke-width="0.5" fill="#333333">
                <path d="M96.5390708,82.6742797 C96.0458198,82.8541943 95.5443207,83.01696 95.0352948,83.1618554 C90.5113243,90.2781454 82.5570863,95 73.5,95 C67.136733,95 61.3178421,92.6692489 56.8504685,88.8148879 C54.6558923,90.0321016 52.2628538,90.9349769 49.7321507,91.4627162 C47.1585793,99.2992865 40.8895562,105.459894 32.9861713,107.88345 C32.9953576,108.087817 33,108.293366 33,108.5 C33,115.955844 26.9558441,122 19.5,122 C12.0441559,122 6,115.955844 6,108.5 C6,106.070831 6.64158993,103.791513 7.76455772,101.822259 C2.97645568,97.1865671 0,90.6908778 0,83.5 C0,79.1443844 1.09203031,75.0438262 3.01723522,71.457181 C1.71845708,68.398016 1,65.0329103 1,61.5 C1,49.2381148 9.65466172,38.9976341 21.1886014,36.5539418 C23.7811412,29.7967709 30.3303977,25 38,25 C40.5507295,25 42.9775408,25.5305571 45.176097,26.4873343 C46.6665733,13.8239385 57.4360348,4 70.5,4 C72.7422765,4 74.9169577,4.28941028 76.988727,4.83291441 C79.9278156,3.65065503 83.1379235,3 86.5,3 C88.3883023,3 90.2286664,3.20524787 92,3.59465131 C93.7713336,3.20524787 95.6116977,3 97.5,3 C98.6059787,3 99.6955124,3.07040915 100.764363,3.20698956 C103.118874,1.20675422 106.168511,0 109.5,0 C113.326255,0 116.780724,1.59180506 119.237308,4.14931514 C122.377373,2.76725348 125.849086,2 129.5,2 C132.441609,2 135.266884,2.49808736 137.896086,3.41452434 C139.389393,3.14223056 140.928086,3 142.5,3 C146.728745,3 150.717074,4.02933917 154.2281,5.85112929 C156.395424,6.66162322 158.298694,8.01320098 159.773521,9.74147383 C161.757626,11.5694399 163.451008,13.7081772 164.776433,16.0804514 C166.191907,17.1411093 167.493464,18.3455034 168.65945,19.6719806 C170.535054,19.2324684 172.490379,19 174.5,19 C188.583261,19 200,30.4167389 200,44.5 C200,44.5549363 199.999826,44.609832 199.999479,44.6646866 C204.172391,46.9611635 207,51.40037 207,56.5 C207,59.5065499 206.017169,62.2835473 204.355265,64.5272346 C210.232071,69.1987422 214,76.4093476 214,84.5 C214,85.8608632 213.893398,87.1968282 213.68809,88.5 C213.893398,89.8031718 214,91.1391368 214,92.5 C214,98.1957265 212.132615,103.455302 208.976682,107.699889 C208.992155,107.964616 209,108.231392 209,108.5 C209,115.955844 202.955844,122 195.5,122 C191.676032,122 188.223405,120.410097 185.767099,117.85527 C172.96892,116.491656 163,105.660011 163,92.5 C163,91.3121763 163.081216,90.1433216 163.238397,88.9986859 C158.588524,88.9519511 154.236661,87.6606687 150.5,85.4420331 C146.693348,87.7022262 142.24823,89 137.5,89 C133.852002,89 130.38292,88.2339718 127.244833,86.8539957 C126.343116,86.9504992 125.427339,87 124.5,87 C117.929977,87 111.94028,84.5153259 107.419313,80.4343802 C105.194775,82.0483157 102.458526,83 99.5,83 C98.4828283,83 97.491931,82.8875057 96.5390708,82.6742797 Z" id="Combined-Shape"></path>
            </g>
            <path d="M60.1902198,207.909681 C58.577965,193.286937 74.245933,186.321632 107.194124,187.013766 C107.194124,187.260439 107.194124,188.103998 107.194124,189.544443 C78.1730828,189.159808 64.808179,197.863287 67.0994124,215.654879 C67.0208875,215.577076 66.9416647,215.498127 66.8617438,215.418031 C76.9170869,226.117748 86.285257,232.068402 107.5,232.057652 C149.662179,232.036288 191.637916,171 191.637916,171 C189.248764,190.140191 189.201827,214.395232 180.763177,225.605824 C180.693019,225.674973 148.037976,264.914366 107.617066,264.914366 C66.77674,264.914366 34.1216967,225.674973 34.0515382,225.605824 C26.1204103,216.491371 24.9166446,191.671369 23,171 C41.2780873,185.615029 51.7418073,198.105229 60.1902198,207.909681 Z M155.946355,209.899372 C152.900928,212.318826 150.284464,214.237328 148.096962,215.654879 C150.388195,197.863287 137.023291,189.159808 108.00225,189.544443 C108.00225,188.103998 108.00225,187.260439 108.00225,187.013766 C141.040171,186.319747 157.021539,193.948282 155.946355,209.899372 Z" id="Beard" stroke="#333333" fill="#333333"></path>
            <g id="Sideburns" transform="translate(19.000000, 122.000000)" fill="#333333">
                <polygon id="Path-3" points="8.79467773 52.7141366 3.77940094 0.182859779 0.730373258 0.182859779 3.38547033 48.4687336"></polygon>
                <polygon id="Path-3" transform="translate(171.378039, 28.122535) scale(-1, 1) translate(-171.378039, -28.122535) " points="175.064304 56.2450697 169.629691 0 167.691773 1.95139286e-16 169.629691 49.5570241"></polygon>
            </g>
        </g>
    </g>
</svg>